<svg xmlns="http://www.w3.org/2000/svg" version="1.1" x="0" y="0" viewBox="0 0 193.5 193.6" xml:space="preserve" id="svg2"><path id="path24" d="M192 97c0 40-26 76-63 89-37 14-80 2-105-28a96 96 0 01-8-110C36 14 76-4 114 3c45 9 78 49 78 94z" class="st1" fill="#44118f" stroke="#fff" stroke-width="3.7" stroke-miterlimit="10" fill-opacity="1"/><g id="g7"><g id="g9"><path id="path11" d="M27 105c-3 1-8 4-11 3-2-1 0-3 1-4 2-2 5-2 8-3 5-1 10-4 14-6 9-5 18-13 28-14 5-1 9 0 14 2 4 2 5 4 9 1 7-5 6-17 15-21 2-1 5 0 7-2 2-4-2-6-4-7l-9-5-8-5c-4-2-9-1-13-2l-11-3c3-2 5-1 8-1h7c2-1 7-4 7-1 0 2-2 1-2 3 2 1 8-4 10-4s11 2 10 5c-1 2-13-4-11 1 3 6 9 2 13 1 1 0 13 0 10 4 1-1-14-1-11 2 5 6 16 0 23-1 5-1 9 0 14 1l12 1c2 4-5 4-6 5l4 9 2 5 5-3 5-5c3-3 3-11 5-7 0 2 0 7-7 14 0 2-1 1 2 4 2 3 3 5 2 9-1 5-4 8-7 12 0 1-9 17-11 13-2-3 4-7 2-11-1-5-4-2-6-4-3-3-2-10 0-13l3-7 3-2-6-11c-2-3-6-5-11-6-6 0-9 2-14 4-4 2-3 1-5 6-1 5-1 5-6 4-5 0-7 1-10 5-2 4-3 9-6 13s-6 5-5 11c2 10 10 12 17 18 4 4 1 8-4 10H92l2 5 4 4v3l3 2c2 5-1 5-4 9l10 4 5 6h3l25-2c6-1 11-2 15-7 3-3 9-21 13-19 5 2 10 9 4 13-5 4-1-6-3-8l-6 12c0 2 5 0 5 2 1 1-9 6-10 7-7 4-13 2-20 4 3 4 16 1 17 3 1 3-3 3-4 4l-9 5c-5 3-13-7-18-10-4-2-13-3-7 4 2 3 6 5 9 6l12 1c3 4-10 4-11 4-5 0-9-2-13-6-5-6-11-25-23-18l7 2c4 3 6 7 8 11s4 8 7 10l6 2 6 2c2 3-8 3-9 3-4 0-8-4-10-7-5-5-8-18-15-19-5-1 4 17 6 19 4 5 9 6 8 9s-6 0-8-1c-7-4-10-12-12-19-1-2-8-23-10-17l5 9 4 12 3 8 6 7-1 1-1 1c-4 3-11-11-12-14-2-4-4-20-10-21-5 0 2 8 3 11 1 5 1 8 4 12 1 3 6 7 3 9-3 3-6-4-8-5s-2 4-6 1c-1-1-10-25-13-21-2 2 10 14 6 18-3 3-7-11-8-12-3-4-8-5-12-9-3-4-2-9-5-13-2-2-3-1-5-2-1 0-4 1-4-1-1-2 4-2 5-3l-2-10c-1-3-2-2-5 0-1 0-9 5-9 2 0-2 4-3 5-4 2-2 2-4 2-7l7-10c-3 1-1 1 0 0zm35 0c4-1 20-4 20-9-1-6-14-3-17-2-6 3-7-1-1-4 3-2 10-3 14-2 3 1 10 6 5 6l2-2h1c1-3-6-6-9-7-6-2-12 0-17 2l-15 9-15 8 3 4c2 3 0 7 2 10 2 7 8 4 12 7v2c-4 3-11-1-15-4-5 4 7 17 8 21 1 3 2 9 7 10l9-3 16-8c3-2 6-4 10 0 2 1 5 10 7 9-5-4 10-8 8-12l-1-1c-2 0-5 9-7 7-1-1 3-7 2-9-1 1-2 10-6 9-1-1 3-10 3-11l3-4-1-6-8 3c-3 0-5-1-6-4s4-12 7-8l-2 6c1 6 8-2 10-3 3-1 9 3 12 0 2-2-9-8-10-9l-5-6c0-2 0-5-2-6l-5 4-7 4c-2 0-10 2-12-1 4-1 1 1 0 0zm88-23c2-2 3-5 6-4s-1 5-1 7c-1 3 1 7 3 9 2-1-1-6-1-7s1-2 2-1l3 2 1-1c1-3-2-11 1-12-5-8-14-1-14 7 1-1 0-2 0 0zM28 119c4 0 2-11 1-11-3-1-4 5-4 6 0 5-1 5 3 5 0 0-1 0 0 0zm32 35l4 7c3 8 3 10 5 12 0-7-4-15-9-19 0 0 2 2 0 0zm90 12l-20-7c4 4 14 10 20 7 0 0-1 1 0 0zm-58-31l2-1-2 1z" class="st0" fill="#fff"/><path id="path13" d="M175 163" class="st0" fill="#fff"/><path id="path19" d="M51 146c-3 0-12-8-11-12 2-3 10 10 12 8 2-1-3-6-4-8l1-6c-1-4-1-1-3-4-1-2-10-19-7-20s11 17 11 17c1-1-3-9-4-11l2-13c2-3 5-4 5 0l-1 5-1 7c0 4 5 8 4 13l-2 6c-2 4 1 7 3 10 3 5 0 8-5 8-1 0 1 0 0 0z" class="st0" fill="#fff"/></g></g><path id="path22" d="M184 97c0 36-24 70-58 82s-73 1-96-26a88 88 0 01-8-101c19-31 56-47 91-41 41 8 71 45 71 86z" class="st1" fill="none" stroke="#fff" stroke-width="3.7" stroke-miterlimit="10"/></svg>