<?xml version="1.0" encoding="UTF-8" standalone="no"?>
<!-- Generator: Adobe Illustrator 19.1.0, SVG Export Plug-In . SVG Version: 6.00 Build 0)  -->

<svg
   xmlns:dc="http://purl.org/dc/elements/1.1/"
   xmlns:cc="http://creativecommons.org/ns#"
   xmlns:rdf="http://www.w3.org/1999/02/22-rdf-syntax-ns#"
   xmlns:svg="http://www.w3.org/2000/svg"
   xmlns="http://www.w3.org/2000/svg"
   xmlns:sodipodi="http://sodipodi.sourceforge.net/DTD/sodipodi-0.dtd"
   xmlns:inkscape="http://www.inkscape.org/namespaces/inkscape"
   version="1.1"
   x="0px"
   y="0px"
   viewBox="0 0 193.5 193.6"
   style="enable-background:new 0 0 193.5 193.6;"
   xml:space="preserve"
   id="svg2"
   inkscape:version="0.92.2 (5c3e80d, 2017-08-06)"
   sodipodi:docname="lepologo.svg"><metadata
     id="metadata30"><rdf:RDF><cc:Work
         rdf:about=""><dc:format>image/svg+xml</dc:format><dc:type
           rdf:resource="http://purl.org/dc/dcmitype/StillImage" /><dc:title></dc:title></cc:Work></rdf:RDF></metadata><defs
     id="defs28" /><sodipodi:namedview
     pagecolor="#000000"
     bordercolor="#666666"
     borderopacity="1"
     objecttolerance="10"
     gridtolerance="10"
     guidetolerance="10"
     inkscape:pageopacity="1"
     inkscape:pageshadow="2"
     inkscape:window-width="1920"
     inkscape:window-height="1031"
     id="namedview26"
     showgrid="false"
     inkscape:zoom="3.4478759"
     inkscape:cx="68.797864"
     inkscape:cy="109.60855"
     inkscape:window-x="0"
     inkscape:window-y="0"
     inkscape:window-maximized="1"
     inkscape:current-layer="svg2" /><style
     type="text/css"
     id="style4">
	.st0{fill:#FFFFFF;}
	.st1{fill:none;stroke:#FFFFFF;stroke-width:3.7;stroke-miterlimit:10;}
</style><path
     style="fill:#44118f;stroke:#ffffff;stroke-width:3.70000005;stroke-miterlimit:10;fill-opacity:1"
     inkscape:connector-curvature="0"
     id="path24"
     d="m 191.7,96.8 c 0,39.7 -25.7,76.2 -63.1,89.5 -37,13.2 -79.5,1.6 -104.7,-28.5 C -2,127 -5.4,81.9 15.5,47.5 35.9,14 75.8,-3.8 114.3,3.4 c 44.4,8.4 77.4,48.3 77.4,93.4 z"
     class="st1" /><g
     id="g7"><g
       id="g9"><path
         style="fill:#ffffff"
         inkscape:connector-curvature="0"
         id="path11"
         d="m 26.6,105.1 c -3,0.5 -7.6,3.8 -10.3,2.7 -2,-0.8 -0.4,-3.1 0.5,-3.7 2.5,-1.7 4.9,-2.1 7.9,-2.9 5.3,-1.5 9.9,-3.8 14.6,-6.5 8.2,-4.8 17.8,-12.6 27.3,-14.1 4.9,-0.8 9.7,0.2 14.1,2.3 3.9,1.9 5.5,4.2 9.4,1.1 6.6,-5.1 5.9,-17.1 14.7,-20.5 2.5,-1 5.6,0 7.2,-2.7 2.4,-4 -2,-5.3 -4.5,-7.1 -3,-2.1 -5.4,-3.2 -8.7,-4.9 -2.6,-1.4 -5,-4 -7.7,-5 -4.1,-1.5 -9,-0.4 -13.2,-1.4 -2.5,-0.6 -8.9,-2 -11,-3.4 3.5,-2.3 4.9,-0.7 8.4,-0.8 6,-0.1 3.2,0 6.5,-0.5 2.1,-0.3 7.1,-3.8 7.3,-1.1 0.1,2 -1.8,1.8 -2,3.1 1.7,0.9 7.6,-3.5 10.2,-3.4 1.7,0 10.8,2.1 9.2,4.9 -0.9,1.5 -12.2,-3.7 -10.2,1 2.5,5.9 8.2,1.8 12.5,1.1 0.7,-0.1 13.1,-0.6 10.3,3.9 0.4,-0.7 -14.3,-1.1 -11.5,1.8 5.8,5.9 16.2,-0.1 23.4,-1 5.2,-0.7 9.4,0.2 14.4,1.4 2.1,0.5 10.7,0 11.2,0.8 2.4,3.5 -4.2,4 -5.4,4.9 0.4,2.3 3.2,6.3 4.1,8.6 0.1,0.1 1.8,5.7 1.4,5.4 0.6,0.5 4.7,-2.2 5.1,-2.7 2.62797,-1.843644 3.00466,-2.641526 5.17881,-5.351695 2.69958,-3.245762 3.24195,-11.05339 5.14195,-7.35339 -0.28464,2.770423 -0.35237,7.03752 -7.02076,13.905085 -0.3,2.9 -0.8,1.1 1.6,4.3 2.5,3.4 3.6,5.2 2.7,9.4 -1.2,5.1 -4.4,7.9 -7,12.1 -0.4,0.7 -9.1,16.5 -11.3,13 -1.9,-3.1 3.7,-7.8 2.4,-11.6 -1.5,-4.3 -4.1,-1.9 -6.6,-3.9 -3.2,-2.4 -1.4,-10 -0.2,-13 0.9,-2.3 2.4,-4.8 3.8,-6.8 0.1,-0.1 2.6,-2.3 2.6,-2.4 0.1,-2.1 -4.3,-9 -5.6,-10.6 -2.9,-3.5 -6.8,-5.2 -11.4,-5.6 -5.6,-0.6 -8.8,1.1 -13.6,3.3 -4.8,2.2 -4,0.8 -5.3,6.2 -1.2,5.3 -1.3,5 -6.2,4.4 -5.2,-0.6 -6.8,0.6 -9.6,4.7 -2.7,4 -3.8,9.1 -6.7,12.9 -3.2,4.2 -6,4.9 -4.6,11 2.3,10.4 9.5,12.3 16.6,18.5 4.2,3.7 1.3,7.4 -3.3,9.3 -1.8,0.7 -11,-0.7 -11.6,0 0,0.6 1.4,4.9 1.9,5.5 1.4,2.2 3.4,1.4 4.6,4 0.3,0.6 -0.9,2 -0.6,2.7 0.3,0.8 2.5,0.8 2.9,1.7 2.1,4.9 -1,5.5 -3.7,9 3.7,0.9 7.5,2 10.5,4.5 1.3,1.1 3.1,4.8 4.3,5.5 1.7,1 1.1,0.1 3.3,0.1 8.4,0 16.7,-0.6 25,-1.9 5.9,-0.9 10.6,-2.2 15.3,-7.2 2.8,-3 9.1,-20.9 13.1,-19 4.3,2 9.1,9.7 3.7,13.7 -4.7,3.5 -0.9,-6.8 -3.3,-8.5 -1.8,4.4 -3.8,8.4 -6.2,12.4 0.8,1.8 5.4,-0.5 5.8,1.9 0.1,0.6 -9.5,6 -10.7,6.7 -6.3,4 -13.1,1.9 -19.6,4.3 2.8,3.6 15.6,1 16.7,3 1.3,2.5 -3.3,3 -4.2,3.4 -2.7,1.2 -5.7,3.7 -8.2,5.2 -5.9,3.7 -13.6,-7 -18.1,-9.4 -4.2,-2.2 -12.9,-3 -7.3,3.7 2.4,2.9 5.5,5.2 9.3,6.1 1.7,0.4 10.6,0 11.5,1 3.5,3.6 -9.8,4.1 -10.8,4.1 -5,-0.2 -9.4,-2.7 -12.7,-6.3 -5.3,-6 -11.5,-25.3 -23.6,-18.4 0.3,0.8 5.7,1.7 7,2.6 3.8,2.7 6.1,7.2 8.3,11.2 2,3.6 3.9,7.2 7.4,9.6 1.6,1.1 3.3,2.2 5.3,2.5 1.2,0.2 5.4,0.7 6.3,1.9 2.4,2.9 -7.8,2.8 -9.1,2.7 -4,-0.3 -7.8,-3.9 -10.3,-6.8 -4.3,-5.1 -7.2,-18.2 -14.9,-19.3 -4.8,-0.7 4.2,16.8 5.9,18.9 4.1,4.8 8.9,6.2 8.2,8.8 -1,3.6 -6.3,0.6 -8,-0.6 -6.4,-4.5 -9.9,-12.1 -12,-19.4 -0.5,-1.8 -7.6,-22.5 -10,-17.1 -0.2,0.5 4.9,8.6 5.3,9.8 1.3,3.8 2.2,7.8 3.5,11.6 0.9,2.8 2,5.3 3.7,7.8 1.3,1.9 5.5,7.8 5.6,7.6 -0.1,0.2 -0.3,0.3 -1.2,0.2 -0.1,0.6 0.4,1.3 -0.3,1.7 -4.9,2.8 -11.9,-11.6 -12.9,-14.4 -1.5,-4.3 -3.3,-20.3 -9.7,-20.7 -5.2,-0.4 1.9,8.2 2.7,11.2 1.1,4.2 1.9,8.1 4.1,11.9 1.7,2.9 6.8,6.3 2.9,9.2 -2.9,2.2 -5.6,-4.7 -7.2,-5.3 -2.8,-1.1 -2.8,3.9 -6.1,1.1 -1.2,-1 -10.3,-25 -13.5,-21.2 -1.6,1.9 10,14.2 6.6,17.5 -3,3 -7.7,-10.3 -8.8,-11.8 -2.9,-4.2 -7.9,-5 -11.1,-8.7 -3.2,-3.7 -2.9,-9.1 -5.8,-12.9 -1.6,-2.1 -2.4,-1.6 -4.7,-2.1 -0.8,-0.2 -4,1 -4.4,-0.7 -0.6,-2.5 4.4,-2 5.1,-3.5 0.1,-0.3 -1.1,-9.7 -1.4,-10 -1.4,-2.4 -2.4,-1.4 -5.5,0 -0.6,0.3 -8.3,5.2 -8.6,2 -0.2,-2.2 3.4,-2.8 4.8,-4.3 1.6,-1.8 2,-3.9 2.5,-6.1 1.4,-4.9 3.3,-6 6.2,-10.4 -2.5,0.5 -0.3,0.5 0,0 z m 35.7,-0.5 c 3.5,-0.3 19.4,-3.3 19.3,-8.5 -0.2,-6 -13.7,-3.4 -17,-2 -6,2.5 -6.2,-0.9 -0.9,-3.9 3.5,-2 10.5,-3 14.4,-1.7 3.2,1 10.2,5.6 4.5,5.7 0.2,0 2.2,-2.5 2.3,-2.5 0.7,-0.2 0.8,0.5 1.4,0.7 0.2,-3.5 -6.5,-5.9 -9.7,-7.1 C 70.5,83 65,84.5 59.5,87.4 c -5.1,2.6 -10,6 -14.9,9 -2.1,1.3 -14.5,6.4 -15,7.9 1,1.6 2.6,1.4 3.6,3.6 1.4,2.9 0.2,7.2 1.4,10.4 2.7,7 8.1,3.7 12.7,7.1 0.8,0.6 0.9,0.9 0,1.5 -4.4,2.9 -11.7,-1.1 -15,-3.8 -5.3,3.8 6.3,17.2 7.5,20.5 1.3,3.5 2.4,9.7 7.2,10.4 2.4,0.4 6.7,-2.1 9.1,-3 5.7,-2.1 10.5,-5.1 15.5,-7.9 3.9,-2.1 6.2,-4 10.2,-0.4 1.8,1.6 4.8,10.2 6.8,8.8 -4.3,-3.9 10,-7.5 8.9,-11.6 -0.2,-0.8 -0.9,-0.9 -1.6,-1 -2.1,-0.3 -4.8,8.8 -7,6.9 -0.5,-0.5 3.5,-6.6 1.7,-8.9 -0.4,1.2 -2.1,10.5 -5.4,8.6 -1,-0.6 2.6,-9.9 3.1,-10.8 0.7,-1.4 2.2,-2.4 2.5,-3.7 0.3,-1.4 -1,-4 -0.8,-6 -1.1,-0.4 -6.3,3.2 -8.3,3.1 -3.1,-0.2 -4.6,-1 -5.8,-4 -1.2,-3.2 3.6,-12 6.9,-8.3 0.4,0.5 -2.3,4.7 -2,6 1.5,6.3 8,-2 10.4,-2.7 3.2,-0.9 9.1,2.4 11.6,0.2 2.2,-2 -8.4,-7.9 -9.8,-9.3 -1.9,-1.9 -3.7,-4 -4.8,-6.5 -0.7,-1.6 -0.7,-4.8 -1.9,-6 -1.1,0 -4.2,3.9 -5.4,4.7 -1.9,1.2 -4.6,2.7 -6.7,3.3 -2.1,0.9 -10.4,2.6 -11.9,-0.9 3.2,-0.4 0.4,0.9 0,0 z m 87.5,-22.8 c 1.9,-1.7 3.3,-4.6 6.3,-3.4 2.8,1.1 -1.4,5.1 -1.6,6.8 -0.4,3.2 1.9,6.4 3.9,8.7 1.4,-0.9 -1.2,-5.9 -1.1,-7.2 0.1,-1.1 0.8,-1.5 1.8,-1.1 0.6,0.2 2.4,2.7 2.8,2.7 0.3,-0.3 0.5,-0.6 0.8,-0.9 1.6,-3.2 -1.8,-11.1 1.2,-12.4 -5.1,-8.2 -14.1,-0.6 -14.1,6.8 0.9,-0.9 0,-1.6 0,0 z M 28.3,119.4 c 3.9,0 1.6,-11.6 0.7,-11.8 -2.5,-0.7 -3.6,5.7 -3.7,6.7 -0.7,4.6 -0.9,4.7 3,5.1 0.1,0 -1,-0.1 0,0 z m 31.8,34.1 c -0.1,1.4 3.3,5.7 3.9,7.3 3,8.2 3.2,10 5.3,12 -0.3,-6.8 -3.8,-15.1 -9.2,-19.3 0,0.4 2.4,2 0,0 z m 89.6,12.7 c -0.8,-0.9 -19.4,-8.1 -20,-6.9 3.9,3.7 14.8,9.7 20,6.9 -0.1,-0.1 -0.7,0.4 0,0 z m -57.9,-31 c 0.9,-0.4 1.7,-0.6 2.2,-1.6 -1,0.3 -1.7,0.6 -2.2,1.6 z"
         class="st0"
         sodipodi:nodetypes="ccccccccccccccccccccccccccccccccccccccccccccccscccccccccccccccsccccccscccsccccccccccccccccccccccccccscccccccsccscccccccccccccccccccccccccccccccccccsccccccccccccscccccccccccccccccccccccccccccccccc" /><path
         style="fill:#ffffff"
         inkscape:connector-curvature="0"
         id="path13"
         d="m 179.4,50.4 m -4.3,112.3"
         class="st0" /><path
         style="fill:#ffffff"
         inkscape:connector-curvature="0"
         id="path19"
         d="m 50.5,146.3 c -2.9,-0.4 -11.8,-8.8 -10.4,-12.2 1.5,-3.6 10.1,10.2 12.3,8.2 1.7,-1.7 -3.7,-6.5 -4.2,-8.3 -0.6,-2.4 0.8,-4.2 0.5,-6.4 -0.5,-3.8 -0.6,-0.6 -2.4,-3.4 -1.1,-1.7 -10.6,-18.8 -7.3,-19.8 3,-0.9 11.3,16.7 11.1,17 1.1,-1.1 -3.5,-9.5 -3.8,-11.5 -0.5,-3.6 0.2,-9.8 2.1,-13 1.7,-3 4.4,-4.3 4.9,-0.3 0.1,1.1 -1.5,4.1 -1.8,5.3 -0.5,2.1 -0.7,4.5 -0.5,6.7 0.3,4.6 4.5,8.9 4.2,13.4 -0.1,2.8 -1.5,3.2 -2.3,5.6 -1.7,4.9 0.7,7.1 3.1,10.9 2.8,4.3 -0.3,7.3 -5.5,7.8 -1,-0.1 1.8,-0.1 0,0 z"
         class="st0" /></g></g><path
     style="fill:none;stroke:#ffffff;stroke-width:3.70000005;stroke-miterlimit:10"
     inkscape:connector-curvature="0"
     id="path22"
     d="m 183.8,96.8 c 0,36.4 -23.6,69.9 -57.9,82.1 C 91.9,191 53,180.4 29.9,152.7 6.2,124.5 3,83.1 22.2,51.6 40.9,20.9 77.5,4.6 112.8,11.2 c 40.7,7.6 71,44.3 71,85.6 z"
     class="st1" /></svg>