<?xml version="1.0" encoding="utf-8"?>
<!-- Generator: Adobe Illustrator 19.1.0, SVG Export Plug-In . SVG Version: 6.00 Build 0)  -->
<svg version="1.1" xmlns="http://www.w3.org/2000/svg" xmlns:xlink="http://www.w3.org/1999/xlink" x="0px" y="0px"
	 viewBox="0 0 193.5 193.6" style="enable-background:new 0 0 193.5 193.6;" xml:space="preserve">
<style type="text/css">
	.st0{fill:#FFFFFF;}
	.st1{fill:none;stroke:#FFFFFF;stroke-width:3.7;stroke-miterlimit:10;}
</style>
<g id="Layer_1">
	<g>
		<g>
			<path class="st0" d="M26.6,105.1c-3,0.5-7.6,3.8-10.3,2.7c-2-0.8-0.4-3.1,0.5-3.7c2.5-1.7,4.9-2.1,7.9-2.9
				c5.3-1.5,9.9-3.8,14.6-6.5c8.2-4.8,17.8-12.6,27.3-14.1c4.9-0.8,9.7,0.2,14.1,2.3c3.9,1.9,5.5,4.2,9.4,1.1
				c6.6-5.1,5.9-17.1,14.7-20.5c2.5-1,5.6,0,7.2-2.7c2.4-4-2-5.3-4.5-7.1c-3-2.1-5.4-3.2-8.7-4.9c-2.6-1.4-5-4-7.7-5
				c-4.1-1.5-9-0.4-13.2-1.4c-2.5-0.6-8.9-2-11-3.4c3.5-2.3,4.9-0.7,8.4-0.8c6-0.1,3.2,0,6.5-0.5c2.1-0.3,7.1-3.8,7.3-1.1
				c0.1,2-1.8,1.8-2,3.1c1.7,0.9,7.6-3.5,10.2-3.4c1.7,0,10.8,2.1,9.2,4.9c-0.9,1.5-12.2-3.7-10.2,1c2.5,5.9,8.2,1.8,12.5,1.1
				c0.7-0.1,13.1-0.6,10.3,3.9c0.4-0.7-14.3-1.1-11.5,1.8c5.8,5.9,16.2-0.1,23.4-1c5.2-0.7,9.4,0.2,14.4,1.4
				c2.1,0.5,10.7,0,11.2,0.8c2.4,3.5-4.2,4-5.4,4.9c0.4,2.3,3.2,6.3,4.1,8.6c0.1,0.1,1.8,5.7,1.4,5.4c0.6,0.5,4.7-2.2,5.1-2.7
				c1.5-2.1,0.8-5,2-7.3c0.7-1.4,7.6-8.9,9.5-5.2c1.1,2.2-3.5,3.5-4.5,4.5c-1.7,1.8-3.5,6.7-3.7,9.2c-0.3,2.9-0.8,1.1,1.6,4.3
				c2.5,3.4,3.6,5.2,2.7,9.4c-1.2,5.1-4.4,7.9-7,12.1c-0.4,0.7-9.1,16.5-11.3,13c-1.9-3.1,3.7-7.8,2.4-11.6
				c-1.5-4.3-4.1-1.9-6.6-3.9c-3.2-2.4-1.4-10-0.2-13c0.9-2.3,2.4-4.8,3.8-6.8c0.1-0.1,2.6-2.3,2.6-2.4c0.1-2.1-4.3-9-5.6-10.6
				c-2.9-3.5-6.8-5.2-11.4-5.6c-5.6-0.6-8.8,1.1-13.6,3.3c-4.8,2.2-4,0.8-5.3,6.2c-1.2,5.3-1.3,5-6.2,4.4c-5.2-0.6-6.8,0.6-9.6,4.7
				c-2.7,4-3.8,9.1-6.7,12.9c-3.2,4.2-6,4.9-4.6,11c2.3,10.4,9.5,12.3,16.6,18.5c4.2,3.7,1.3,7.4-3.3,9.3c-1.8,0.7-11-0.7-11.6,0
				c0,0.6,1.4,4.9,1.9,5.5c1.4,2.2,3.4,1.4,4.6,4c0.3,0.6-0.9,2-0.6,2.7c0.3,0.8,2.5,0.8,2.9,1.7c2.1,4.9-1,5.5-3.7,9
				c3.7,0.9,7.5,2,10.5,4.5c1.3,1.1,3.1,4.8,4.3,5.5c1.7,1,1.1,0.1,3.3,0.1c8.4,0,16.7-0.6,25-1.9c5.9-0.9,10.6-2.2,15.3-7.2
				c2.8-3,9.1-20.9,13.1-19c4.3,2,9.1,9.7,3.7,13.7c-4.7,3.5-0.9-6.8-3.3-8.5c-1.8,4.4-3.8,8.4-6.2,12.4c0.8,1.8,5.4-0.5,5.8,1.9
				c0.1,0.6-9.5,6-10.7,6.7c-6.3,4-13.1,1.9-19.6,4.3c2.8,3.6,15.6,1,16.7,3c1.3,2.5-3.3,3-4.2,3.4c-2.7,1.2-5.7,3.7-8.2,5.2
				c-5.9,3.7-13.6-7-18.1-9.4c-4.2-2.2-12.9-3-7.3,3.7c2.4,2.9,5.5,5.2,9.3,6.1c1.7,0.4,10.6,0,11.5,1c3.5,3.6-9.8,4.1-10.8,4.1
				c-5-0.2-9.4-2.7-12.7-6.3c-5.3-6-11.5-25.3-23.6-18.4c0.3,0.8,5.7,1.7,7,2.6c3.8,2.7,6.1,7.2,8.3,11.2c2,3.6,3.9,7.2,7.4,9.6
				c1.6,1.1,3.3,2.2,5.3,2.5c1.2,0.2,5.4,0.7,6.3,1.9c2.4,2.9-7.8,2.8-9.1,2.7c-4-0.3-7.8-3.9-10.3-6.8c-4.3-5.1-7.2-18.2-14.9-19.3
				c-4.8-0.7,4.2,16.8,5.9,18.9c4.1,4.8,8.9,6.2,8.2,8.8c-1,3.6-6.3,0.6-8-0.6c-6.4-4.5-9.9-12.1-12-19.4c-0.5-1.8-7.6-22.5-10-17.1
				c-0.2,0.5,4.9,8.6,5.3,9.8c1.3,3.8,2.2,7.8,3.5,11.6c0.9,2.8,2,5.3,3.7,7.8c1.3,1.9,5.5,7.8,5.6,7.6c-0.1,0.2-0.3,0.3-1.2,0.2
				c-0.1,0.6,0.4,1.3-0.3,1.7c-4.9,2.8-11.9-11.6-12.9-14.4c-1.5-4.3-3.3-20.3-9.7-20.7c-5.2-0.4,1.9,8.2,2.7,11.2
				c1.1,4.2,1.9,8.1,4.1,11.9c1.7,2.9,6.8,6.3,2.9,9.2c-2.9,2.2-5.6-4.7-7.2-5.3c-2.8-1.1-2.8,3.9-6.1,1.1c-1.2-1-10.3-25-13.5-21.2
				c-1.6,1.9,10,14.2,6.6,17.5c-3,3-7.7-10.3-8.8-11.8c-2.9-4.2-7.9-5-11.1-8.7c-3.2-3.7-2.9-9.1-5.8-12.9c-1.6-2.1-2.4-1.6-4.7-2.1
				c-0.8-0.2-4,1-4.4-0.7c-0.6-2.5,4.4-2,5.1-3.5c0.1-0.3-1.1-9.7-1.4-10c-1.4-2.4-2.4-1.4-5.5,0c-0.6,0.3-8.3,5.2-8.6,2
				c-0.2-2.2,3.4-2.8,4.8-4.3c1.6-1.8,2-3.9,2.5-6.1C21.8,110.6,23.7,109.5,26.6,105.1C24.1,105.6,26.3,105.6,26.6,105.1z
				 M62.3,104.6c3.5-0.3,19.4-3.3,19.3-8.5c-0.2-6-13.7-3.4-17-2c-6,2.5-6.2-0.9-0.9-3.9c3.5-2,10.5-3,14.4-1.7
				c3.2,1,10.2,5.6,4.5,5.7c0.2,0,2.2-2.5,2.3-2.5c0.7-0.2,0.8,0.5,1.4,0.7c0.2-3.5-6.5-5.9-9.7-7.1C70.5,83,65,84.5,59.5,87.4
				c-5.1,2.6-10,6-14.9,9c-2.1,1.3-14.5,6.4-15,7.9c1,1.6,2.6,1.4,3.6,3.6c1.4,2.9,0.2,7.2,1.4,10.4c2.7,7,8.1,3.7,12.7,7.1
				c0.8,0.6,0.9,0.9,0,1.5c-4.4,2.9-11.7-1.1-15-3.8c-5.3,3.8,6.3,17.2,7.5,20.5c1.3,3.5,2.4,9.7,7.2,10.4c2.4,0.4,6.7-2.1,9.1-3
				c5.7-2.1,10.5-5.1,15.5-7.9c3.9-2.1,6.2-4,10.2-0.4c1.8,1.6,4.8,10.2,6.8,8.8c-4.3-3.9,10-7.5,8.9-11.6c-0.2-0.8-0.9-0.9-1.6-1
				c-2.1-0.3-4.8,8.8-7,6.9c-0.5-0.5,3.5-6.6,1.7-8.9c-0.4,1.2-2.1,10.5-5.4,8.6c-1-0.6,2.6-9.9,3.1-10.8c0.7-1.4,2.2-2.4,2.5-3.7
				c0.3-1.4-1-4-0.8-6c-1.1-0.4-6.3,3.2-8.3,3.1c-3.1-0.2-4.6-1-5.8-4c-1.2-3.2,3.6-12,6.9-8.3c0.4,0.5-2.3,4.7-2,6
				c1.5,6.3,8-2,10.4-2.7c3.2-0.9,9.1,2.4,11.6,0.2c2.2-2-8.4-7.9-9.8-9.3c-1.9-1.9-3.7-4-4.8-6.5c-0.7-1.6-0.7-4.8-1.9-6
				c-1.1,0-4.2,3.9-5.4,4.7c-1.9,1.2-4.6,2.7-6.7,3.3C72.1,106.4,63.8,108.1,62.3,104.6C65.5,104.2,62.7,105.5,62.3,104.6z
				 M149.8,81.8c1.9-1.7,3.3-4.6,6.3-3.4c2.8,1.1-1.4,5.1-1.6,6.8c-0.4,3.2,1.9,6.4,3.9,8.7c1.4-0.9-1.2-5.9-1.1-7.2
				c0.1-1.1,0.8-1.5,1.8-1.1c0.6,0.2,2.4,2.7,2.8,2.7c0.3-0.3,0.5-0.6,0.8-0.9c1.6-3.2-1.8-11.1,1.2-12.4
				C158.8,66.8,149.8,74.4,149.8,81.8C150.7,80.9,149.8,80.2,149.8,81.8z M28.3,119.4c3.9,0,1.6-11.6,0.7-11.8
				c-2.5-0.7-3.6,5.7-3.7,6.7C24.6,118.9,24.4,119,28.3,119.4C28.4,119.4,27.3,119.3,28.3,119.4z M60.1,153.5
				c-0.1,1.4,3.3,5.7,3.9,7.3c3,8.2,3.2,10,5.3,12C69,166,65.5,157.7,60.1,153.5C60.1,153.9,62.5,155.5,60.1,153.5z M149.7,166.2
				c-0.8-0.9-19.4-8.1-20-6.9C133.6,163,144.5,169,149.7,166.2C149.6,166.1,149,166.6,149.7,166.2z M91.8,135.2
				c0.9-0.4,1.7-0.6,2.2-1.6C93,133.9,92.3,134.2,91.8,135.2z"/>
			<path class="st0" d="M179.4,50.4 M175.1,162.7"/>
			<path class="st0" d="M128.6,94.8c0.4,0.5,2.4,1.7,1.8,2.7c-1.2,2-3.1-0.6-4.6,0c-1.5,0.6-1.7,1.7-3,2.7c-2.4,2.1-2.7-3.6-4.4-4.6
				c-1.7-1-8.3,2-8.1-1.7c0.1-1,2.5-1.6,3.2-2.4c0.5-0.5,2.1-2,2.3-2.6c0.5-1.7-1.2-3.6-0.7-4.8c1.4-3,2-0.7,5-1.6c3-0.8,4-4.4,7-5
				c3-0.6,2,3.3,3.5,4.2c1.3,0.9,4.2-0.9,5.3,0.8c1,1.6-0.8,3.9-1.6,5.1C133.8,88.6,129.3,94.5,128.6,94.8c-0.2-0.4-0.6-0.4-0.9,0
				c0,0.3,0.3,0.4,0.5,0.3C128.5,95.2,128.6,95,128.6,94.8C129,95.3,128.6,95,128.6,94.8z M127.6,90.6c-0.5-3.2-0.6-8-5.1-4.1
				c-2.5,2.2-1.5,9.3,2.8,7.6C126.5,93.7,127.6,92.2,127.6,90.6C127.4,89.3,127.6,92.2,127.6,90.6z M132.4,84.1
				c-2.3-0.1-3,1.3-2.5,3.5c0.1,0.6,0.7,0.8,1.1,0.3C131.3,87.5,134.4,84.2,132.4,84.1C130.2,84.1,133,84.2,132.4,84.1z M118.6,92.4
				c-0.1-0.3-0.1-0.7-0.5-0.7c-0.7,0.3-0.8,0.7-0.2,1.1C118.2,92.9,118.5,92.9,118.6,92.4C118.5,92.1,118.5,92.9,118.6,92.4z"/>
			<path class="st0" d="M126.7,120.6c2.9,0,6.4-5,7.1-4.5c1.8,1.4,0.9,5,3.1,5.4c1.4,0.3,3.3-2.3,4.1-0.4c1,2.2-0.7,2.5-1.4,4
				c-1.3,2.8-1.8,3.4-2.2,6.1c0.7,1.1,1,2.2,0.8,3.4c-0.9,0.6-1.8,0.6-2.9,0.3c0.5-0.3-6.5,2.2-6,2.3c-0.9-0.2-0.5-1.3-1-1.7
				c-1.1-0.9-1,0.3-2.7-0.1c-0.9-0.2-7.7-0.2-4.8-3c1.2-1.1,3.9,1.5,5.5,0.3c2.1-1.7-1.5-1.8-1.5-2c0.1,0.5-1.1-1.6-1.1-1.4
				c-0.4-0.9,1-1.8,1-2.9C124.4,123,121,120.5,126.7,120.6C126.7,120.5,126.7,120.6,126.7,120.6
				C127.3,120.6,126.7,120.6,126.7,120.6z M132,123.6c-3-0.2-5,7.3-2.4,8.2c3,1,4.5-5.1,4-6.9C133.2,123.7,133.2,123.5,132,123.6
				C131.2,123.5,133.2,123.5,132,123.6z M127.5,123.8c0-0.2,0-0.3-0.2-0.3c-0.3,0-0.4,0.2-0.1,0.5
				C127.4,124.1,127.5,124,127.5,123.8C127.6,123.7,127.5,124,127.5,123.8z"/>
			<path class="st0" d="M50.5,146.3c-2.9-0.4-11.8-8.8-10.4-12.2c1.5-3.6,10.1,10.2,12.3,8.2c1.7-1.7-3.7-6.5-4.2-8.3
				c-0.6-2.4,0.8-4.2,0.5-6.4c-0.5-3.8-0.6-0.6-2.4-3.4c-1.1-1.7-10.6-18.8-7.3-19.8c3-0.9,11.3,16.7,11.1,17
				c1.1-1.1-3.5-9.5-3.8-11.5c-0.5-3.6,0.2-9.8,2.1-13c1.7-3,4.4-4.3,4.9-0.3c0.1,1.1-1.5,4.1-1.8,5.3c-0.5,2.1-0.7,4.5-0.5,6.7
				c0.3,4.6,4.5,8.9,4.2,13.4c-0.1,2.8-1.5,3.2-2.3,5.6c-1.7,4.9,0.7,7.1,3.1,10.9C58.8,142.8,55.7,145.8,50.5,146.3
				C49.5,146.2,52.3,146.2,50.5,146.3z"/>
		</g>
	</g>
</g>
<g id="Layer_2">
	<path class="st1" d="M183.8,96.8c0,36.4-23.6,69.9-57.9,82.1c-34,12.1-72.9,1.5-96-26.2C6.2,124.5,3,83.1,22.2,51.6
		c18.7-30.7,55.3-47,90.6-40.4C153.5,18.8,183.8,55.5,183.8,96.8z"/>
	<path class="st1" d="M191.7,96.8c0,39.7-25.7,76.2-63.1,89.5c-37,13.2-79.5,1.6-104.7-28.5C-2,127-5.4,81.9,15.5,47.5
		C35.9,14,75.8-3.8,114.3,3.4C158.7,11.8,191.7,51.7,191.7,96.8z"/>
</g>
</svg>
